<?xml version="1.0" encoding="utf-8" standalone="no"?>
<!DOCTYPE svg PUBLIC "-//W3C//DTD SVG 1.1//EN"
  "http://www.w3.org/Graphics/SVG/1.1/DTD/svg11.dtd">
<svg xmlns:xlink="http://www.w3.org/1999/xlink" width="857.014687pt" height="352.655625pt" viewBox="0 0 857.014687 352.655625" xmlns="http://www.w3.org/2000/svg" version="1.1">
 <metadata>
  <rdf:RDF xmlns:dc="http://purl.org/dc/elements/1.1/" xmlns:cc="http://creativecommons.org/ns#" xmlns:rdf="http://www.w3.org/1999/02/22-rdf-syntax-ns#">
   <cc:Work>
    <dc:type rdf:resource="http://purl.org/dc/dcmitype/StillImage"/>
    <dc:date>2026-01-28T20:12:42.752372</dc:date>
    <dc:format>image/svg+xml</dc:format>
    <dc:creator>
     <cc:Agent>
      <dc:title>Matplotlib v3.9.2, https://matplotlib.org/</dc:title>
     </cc:Agent>
    </dc:creator>
   </cc:Work>
  </rdf:RDF>
 </metadata>
 <defs>
  <style type="text/css">*{stroke-linejoin: round; stroke-linecap: butt}</style>
 </defs>
 <g id="figure_1">
  <g id="patch_1">
   <path d="M 0 352.655625 
L 857.014687 352.655625 
L 857.014687 0 
L 0 0 
z
" style="fill: #ffffff"/>
  </g>
  <g id="axes_1">
   <g id="patch_2">
    <path d="M 45.774688 345.455625 
L 423.214687 345.455625 
L 423.214687 21.935625 
L 45.774688 21.935625 
z
" style="fill: #ffffff"/>
   </g>
   <g id="PolyCollection_1">
    <path d="M 304.56508 330.75017 
L 164.424295 330.75017 
L 163.593233 327.779372 
L 162.892585 324.808573 
L 162.317027 321.837774 
L 161.859233 318.866975 
L 161.509931 315.896176 
L 161.257976 312.925377 
L 161.090471 309.954578 
L 160.992909 306.983779 
L 160.949344 304.01298 
L 160.942591 301.042181 
L 160.954445 298.071383 
L 160.965921 295.100584 
L 160.95751 292.129785 
L 160.909447 289.158986 
L 160.801978 286.188187 
L 160.615645 283.217388 
L 160.331552 280.246589 
L 159.931641 277.27579 
L 159.398944 274.304991 
L 158.71783 271.334192 
L 157.874232 268.363394 
L 156.855851 265.392595 
L 155.652341 262.421796 
L 154.255462 259.450997 
L 152.659209 256.480198 
L 150.859911 253.509399 
L 148.856302 250.5386 
L 146.649554 247.567801 
L 144.24329 244.597002 
L 141.64356 241.626204 
L 138.858787 238.655405 
L 135.899692 235.684606 
L 132.779187 232.713807 
L 129.512243 229.743008 
L 126.115744 226.772209 
L 122.608314 223.80141 
L 119.010125 220.830611 
L 115.342702 217.859812 
L 111.628702 214.889013 
L 107.891692 211.918215 
L 104.155921 208.947416 
L 100.446084 205.976617 
L 96.787085 203.005818 
L 93.203806 200.035019 
L 89.720869 197.06422 
L 86.362417 194.093421 
L 83.151891 191.122622 
L 80.111821 188.151823 
L 77.26363 185.181024 
L 74.627444 182.210226 
L 72.221929 179.239427 
L 70.064124 176.268628 
L 68.169313 173.297829 
L 66.550899 170.32703 
L 65.220302 167.356231 
L 64.186876 164.385432 
L 63.457851 161.414633 
L 63.038286 158.443834 
L 62.931051 155.473035 
L 63.13683 152.502237 
L 63.654137 149.531438 
L 64.479363 146.560639 
L 65.60684 143.58984 
L 67.028918 140.619041 
L 68.736071 137.648242 
L 70.717017 134.677443 
L 72.958849 131.706644 
L 75.447191 128.735845 
L 78.166359 125.765046 
L 81.099535 122.794248 
L 84.228953 119.823449 
L 87.536088 116.85265 
L 91.001852 113.881851 
L 94.606792 110.911052 
L 98.33128 107.940253 
L 102.155713 104.969454 
L 106.060694 101.998655 
L 110.027214 99.027856 
L 114.036817 96.057058 
L 118.071753 93.086259 
L 122.115122 90.11546 
L 126.150995 87.144661 
L 130.164517 84.173862 
L 134.141997 81.203063 
L 138.070971 78.232264 
L 141.940251 75.261465 
L 145.739952 72.290666 
L 149.461496 69.319867 
L 153.097601 66.349069 
L 156.642255 63.37827 
L 160.090662 60.407471 
L 163.439191 57.436672 
L 166.685294 54.465873 
L 169.827426 51.495074 
L 172.864952 48.524275 
L 175.798046 45.553476 
L 178.627588 42.582677 
L 181.355061 39.611878 
L 183.982446 36.64108 
L 285.006929 36.64108 
L 285.006929 36.64108 
L 287.634314 39.611878 
L 290.361787 42.582677 
L 293.191329 45.553476 
L 296.124423 48.524275 
L 299.161949 51.495074 
L 302.304081 54.465873 
L 305.550184 57.436672 
L 308.898713 60.407471 
L 312.34712 63.37827 
L 315.891774 66.349069 
L 319.527879 69.319867 
L 323.249423 72.290666 
L 327.049124 75.261465 
L 330.918404 78.232264 
L 334.847378 81.203063 
L 338.824858 84.173862 
L 342.83838 87.144661 
L 346.874253 90.11546 
L 350.917622 93.086259 
L 354.952558 96.057058 
L 358.962161 99.027856 
L 362.928681 101.998655 
L 366.833662 104.969454 
L 370.658095 107.940253 
L 374.382583 110.911052 
L 377.987523 113.881851 
L 381.453287 116.85265 
L 384.760422 119.823449 
L 387.88984 122.794248 
L 390.823016 125.765046 
L 393.542184 128.735845 
L 396.030526 131.706644 
L 398.272358 134.677443 
L 400.253304 137.648242 
L 401.960457 140.619041 
L 403.382535 143.58984 
L 404.510012 146.560639 
L 405.335238 149.531438 
L 405.852545 152.502237 
L 406.058324 155.473035 
L 405.951089 158.443834 
L 405.531524 161.414633 
L 404.802499 164.385432 
L 403.769073 167.356231 
L 402.438476 170.32703 
L 400.820062 173.297829 
L 398.925251 176.268628 
L 396.767446 179.239427 
L 394.361931 182.210226 
L 391.725745 185.181024 
L 388.877554 188.151823 
L 385.837484 191.122622 
L 382.626958 194.093421 
L 379.268506 197.06422 
L 375.785569 200.035019 
L 372.20229 203.005818 
L 368.543291 205.976617 
L 364.833454 208.947416 
L 361.097683 211.918215 
L 357.360673 214.889013 
L 353.646673 217.859812 
L 349.97925 220.830611 
L 346.381061 223.80141 
L 342.873631 226.772209 
L 339.477132 229.743008 
L 336.210188 232.713807 
L 333.089683 235.684606 
L 330.130588 238.655405 
L 327.345815 241.626204 
L 324.746085 244.597002 
L 322.339821 247.567801 
L 320.133073 250.5386 
L 318.129464 253.509399 
L 316.330166 256.480198 
L 314.733913 259.450997 
L 313.337034 262.421796 
L 312.133524 265.392595 
L 311.115143 268.363394 
L 310.271545 271.334192 
L 309.590431 274.304991 
L 309.057734 277.27579 
L 308.657823 280.246589 
L 308.37373 283.217388 
L 308.187397 286.188187 
L 308.079928 289.158986 
L 308.031865 292.129785 
L 308.023454 295.100584 
L 308.03493 298.071383 
L 308.046784 301.042181 
L 308.040031 304.01298 
L 307.996466 306.983779 
L 307.898904 309.954578 
L 307.731399 312.925377 
L 307.479444 315.896176 
L 307.130142 318.866975 
L 306.672348 321.837774 
L 306.09679 324.808573 
L 305.396142 327.779372 
L 304.56508 330.75017 
z
" clip-path="url(#pee5781b86c)" style="fill: #1976d2; fill-opacity: 0.7"/>
   </g>
   <g id="matplotlib.axis_1"/>
   <g id="matplotlib.axis_2">
    <g id="ytick_1">
     <g id="line2d_1">
      <path d="M 45.774688 323.23848 
L 423.214687 323.23848 
" clip-path="url(#pee5781b86c)" style="fill: none; stroke: #b0b0b0; stroke-opacity: 0.3; stroke-width: 0.8; stroke-linecap: square"/>
     </g>
     <g id="line2d_2">
      <defs>
       <path id="m0220d822c2" d="M 0 0 
L -3.5 0 
" style="stroke: #000000; stroke-width: 0.8"/>
      </defs>
      <g>
       <use xlink:href="#m0220d822c2" x="45.774688" y="323.23848" style="stroke: #000000; stroke-width: 0.8"/>
      </g>
     </g>
     <g id="text_1">
      <!-- 0.80 -->
      <g transform="translate(21.259844 326.459495) scale(0.09 -0.09)">
       <defs>
        <path id="ArialMT-30" d="M 266 2259 
Q 266 3072 433 3567 
Q 600 4063 929 4331 
Q 1259 4600 1759 4600 
Q 2128 4600 2406 4451 
Q 2684 4303 2865 4023 
Q 3047 3744 3150 3342 
Q 3253 2941 3253 2259 
Q 3253 1453 3087 958 
Q 2922 463 2592 192 
Q 2263 -78 1759 -78 
Q 1097 -78 719 397 
Q 266 969 266 2259 
z
M 844 2259 
Q 844 1131 1108 757 
Q 1372 384 1759 384 
Q 2147 384 2411 759 
Q 2675 1134 2675 2259 
Q 2675 3391 2411 3762 
Q 2147 4134 1753 4134 
Q 1366 4134 1134 3806 
Q 844 3388 844 2259 
z
" transform="scale(0.015625)"/>
        <path id="ArialMT-2e" d="M 581 0 
L 581 641 
L 1222 641 
L 1222 0 
L 581 0 
z
" transform="scale(0.015625)"/>
        <path id="ArialMT-38" d="M 1131 2484 
Q 781 2613 612 2850 
Q 444 3088 444 3419 
Q 444 3919 803 4259 
Q 1163 4600 1759 4600 
Q 2359 4600 2725 4251 
Q 3091 3903 3091 3403 
Q 3091 3084 2923 2848 
Q 2756 2613 2416 2484 
Q 2838 2347 3058 2040 
Q 3278 1734 3278 1309 
Q 3278 722 2862 322 
Q 2447 -78 1769 -78 
Q 1091 -78 675 323 
Q 259 725 259 1325 
Q 259 1772 486 2073 
Q 713 2375 1131 2484 
z
M 1019 3438 
Q 1019 3113 1228 2906 
Q 1438 2700 1772 2700 
Q 2097 2700 2305 2904 
Q 2513 3109 2513 3406 
Q 2513 3716 2298 3927 
Q 2084 4138 1766 4138 
Q 1444 4138 1231 3931 
Q 1019 3725 1019 3438 
z
M 838 1322 
Q 838 1081 952 856 
Q 1066 631 1291 507 
Q 1516 384 1775 384 
Q 2178 384 2440 643 
Q 2703 903 2703 1303 
Q 2703 1709 2433 1975 
Q 2163 2241 1756 2241 
Q 1359 2241 1098 1978 
Q 838 1716 838 1322 
z
" transform="scale(0.015625)"/>
       </defs>
       <use xlink:href="#ArialMT-30"/>
       <use xlink:href="#ArialMT-2e" x="55.615234"/>
       <use xlink:href="#ArialMT-38" x="83.398438"/>
       <use xlink:href="#ArialMT-30" x="139.013672"/>
      </g>
     </g>
    </g>
    <g id="ytick_2">
     <g id="line2d_3">
      <path d="M 45.774688 281.216039 
L 423.214687 281.216039 
" clip-path="url(#pee5781b86c)" style="fill: none; stroke: #b0b0b0; stroke-opacity: 0.3; stroke-width: 0.8; stroke-linecap: square"/>
     </g>
     <g id="line2d_4">
      <g>
       <use xlink:href="#m0220d822c2" x="45.774688" y="281.216039" style="stroke: #000000; stroke-width: 0.8"/>
      </g>
     </g>
     <g id="text_2">
      <!-- 0.82 -->
      <g transform="translate(21.259844 284.437054) scale(0.09 -0.09)">
       <defs>
        <path id="ArialMT-32" d="M 3222 541 
L 3222 0 
L 194 0 
Q 188 203 259 391 
Q 375 700 629 1000 
Q 884 1300 1366 1694 
Q 2113 2306 2375 2664 
Q 2638 3022 2638 3341 
Q 2638 3675 2398 3904 
Q 2159 4134 1775 4134 
Q 1369 4134 1125 3890 
Q 881 3647 878 3216 
L 300 3275 
Q 359 3922 746 4261 
Q 1134 4600 1788 4600 
Q 2447 4600 2831 4234 
Q 3216 3869 3216 3328 
Q 3216 3053 3103 2787 
Q 2991 2522 2730 2228 
Q 2469 1934 1863 1422 
Q 1356 997 1212 845 
Q 1069 694 975 541 
L 3222 541 
z
" transform="scale(0.015625)"/>
       </defs>
       <use xlink:href="#ArialMT-30"/>
       <use xlink:href="#ArialMT-2e" x="55.615234"/>
       <use xlink:href="#ArialMT-38" x="83.398438"/>
       <use xlink:href="#ArialMT-32" x="139.013672"/>
      </g>
     </g>
    </g>
    <g id="ytick_3">
     <g id="line2d_5">
      <path d="M 45.774688 239.193598 
L 423.214687 239.193598 
" clip-path="url(#pee5781b86c)" style="fill: none; stroke: #b0b0b0; stroke-opacity: 0.3; stroke-width: 0.8; stroke-linecap: square"/>
     </g>
     <g id="line2d_6">
      <g>
       <use xlink:href="#m0220d822c2" x="45.774688" y="239.193598" style="stroke: #000000; stroke-width: 0.8"/>
      </g>
     </g>
     <g id="text_3">
      <!-- 0.84 -->
      <g transform="translate(21.259844 242.414613) scale(0.09 -0.09)">
       <defs>
        <path id="ArialMT-34" d="M 2069 0 
L 2069 1097 
L 81 1097 
L 81 1613 
L 2172 4581 
L 2631 4581 
L 2631 1613 
L 3250 1613 
L 3250 1097 
L 2631 1097 
L 2631 0 
L 2069 0 
z
M 2069 1613 
L 2069 3678 
L 634 1613 
L 2069 1613 
z
" transform="scale(0.015625)"/>
       </defs>
       <use xlink:href="#ArialMT-30"/>
       <use xlink:href="#ArialMT-2e" x="55.615234"/>
       <use xlink:href="#ArialMT-38" x="83.398438"/>
       <use xlink:href="#ArialMT-34" x="139.013672"/>
      </g>
     </g>
    </g>
    <g id="ytick_4">
     <g id="line2d_7">
      <path d="M 45.774688 197.171157 
L 423.214687 197.171157 
" clip-path="url(#pee5781b86c)" style="fill: none; stroke: #b0b0b0; stroke-opacity: 0.3; stroke-width: 0.8; stroke-linecap: square"/>
     </g>
     <g id="line2d_8">
      <g>
       <use xlink:href="#m0220d822c2" x="45.774688" y="197.171157" style="stroke: #000000; stroke-width: 0.8"/>
      </g>
     </g>
     <g id="text_4">
      <!-- 0.86 -->
      <g transform="translate(21.259844 200.392172) scale(0.09 -0.09)">
       <defs>
        <path id="ArialMT-36" d="M 3184 3459 
L 2625 3416 
Q 2550 3747 2413 3897 
Q 2184 4138 1850 4138 
Q 1581 4138 1378 3988 
Q 1113 3794 959 3422 
Q 806 3050 800 2363 
Q 1003 2672 1297 2822 
Q 1591 2972 1913 2972 
Q 2475 2972 2870 2558 
Q 3266 2144 3266 1488 
Q 3266 1056 3080 686 
Q 2894 316 2569 119 
Q 2244 -78 1831 -78 
Q 1128 -78 684 439 
Q 241 956 241 2144 
Q 241 3472 731 4075 
Q 1159 4600 1884 4600 
Q 2425 4600 2770 4297 
Q 3116 3994 3184 3459 
z
M 888 1484 
Q 888 1194 1011 928 
Q 1134 663 1356 523 
Q 1578 384 1822 384 
Q 2178 384 2434 671 
Q 2691 959 2691 1453 
Q 2691 1928 2437 2201 
Q 2184 2475 1800 2475 
Q 1419 2475 1153 2201 
Q 888 1928 888 1484 
z
" transform="scale(0.015625)"/>
       </defs>
       <use xlink:href="#ArialMT-30"/>
       <use xlink:href="#ArialMT-2e" x="55.615234"/>
       <use xlink:href="#ArialMT-38" x="83.398438"/>
       <use xlink:href="#ArialMT-36" x="139.013672"/>
      </g>
     </g>
    </g>
    <g id="ytick_5">
     <g id="line2d_9">
      <path d="M 45.774688 155.148715 
L 423.214687 155.148715 
" clip-path="url(#pee5781b86c)" style="fill: none; stroke: #b0b0b0; stroke-opacity: 0.3; stroke-width: 0.8; stroke-linecap: square"/>
     </g>
     <g id="line2d_10">
      <g>
       <use xlink:href="#m0220d822c2" x="45.774688" y="155.148715" style="stroke: #000000; stroke-width: 0.8"/>
      </g>
     </g>
     <g id="text_5">
      <!-- 0.88 -->
      <g transform="translate(21.259844 158.369731) scale(0.09 -0.09)">
       <use xlink:href="#ArialMT-30"/>
       <use xlink:href="#ArialMT-2e" x="55.615234"/>
       <use xlink:href="#ArialMT-38" x="83.398438"/>
       <use xlink:href="#ArialMT-38" x="139.013672"/>
      </g>
     </g>
    </g>
    <g id="ytick_6">
     <g id="line2d_11">
      <path d="M 45.774688 113.126274 
L 423.214687 113.126274 
" clip-path="url(#pee5781b86c)" style="fill: none; stroke: #b0b0b0; stroke-opacity: 0.3; stroke-width: 0.8; stroke-linecap: square"/>
     </g>
     <g id="line2d_12">
      <g>
       <use xlink:href="#m0220d822c2" x="45.774688" y="113.126274" style="stroke: #000000; stroke-width: 0.8"/>
      </g>
     </g>
     <g id="text_6">
      <!-- 0.90 -->
      <g transform="translate(21.259844 116.34729) scale(0.09 -0.09)">
       <defs>
        <path id="ArialMT-39" d="M 350 1059 
L 891 1109 
Q 959 728 1153 556 
Q 1347 384 1650 384 
Q 1909 384 2104 503 
Q 2300 622 2425 820 
Q 2550 1019 2634 1356 
Q 2719 1694 2719 2044 
Q 2719 2081 2716 2156 
Q 2547 1888 2255 1720 
Q 1963 1553 1622 1553 
Q 1053 1553 659 1965 
Q 266 2378 266 3053 
Q 266 3750 677 4175 
Q 1088 4600 1706 4600 
Q 2153 4600 2523 4359 
Q 2894 4119 3086 3673 
Q 3278 3228 3278 2384 
Q 3278 1506 3087 986 
Q 2897 466 2520 194 
Q 2144 -78 1638 -78 
Q 1100 -78 759 220 
Q 419 519 350 1059 
z
M 2653 3081 
Q 2653 3566 2395 3850 
Q 2138 4134 1775 4134 
Q 1400 4134 1122 3828 
Q 844 3522 844 3034 
Q 844 2597 1108 2323 
Q 1372 2050 1759 2050 
Q 2150 2050 2401 2323 
Q 2653 2597 2653 3081 
z
" transform="scale(0.015625)"/>
       </defs>
       <use xlink:href="#ArialMT-30"/>
       <use xlink:href="#ArialMT-2e" x="55.615234"/>
       <use xlink:href="#ArialMT-39" x="83.398438"/>
       <use xlink:href="#ArialMT-30" x="139.013672"/>
      </g>
     </g>
    </g>
    <g id="ytick_7">
     <g id="line2d_13">
      <path d="M 45.774688 71.103833 
L 423.214687 71.103833 
" clip-path="url(#pee5781b86c)" style="fill: none; stroke: #b0b0b0; stroke-opacity: 0.3; stroke-width: 0.8; stroke-linecap: square"/>
     </g>
     <g id="line2d_14">
      <g>
       <use xlink:href="#m0220d822c2" x="45.774688" y="71.103833" style="stroke: #000000; stroke-width: 0.8"/>
      </g>
     </g>
     <g id="text_7">
      <!-- 0.92 -->
      <g transform="translate(21.259844 74.324849) scale(0.09 -0.09)">
       <use xlink:href="#ArialMT-30"/>
       <use xlink:href="#ArialMT-2e" x="55.615234"/>
       <use xlink:href="#ArialMT-39" x="83.398438"/>
       <use xlink:href="#ArialMT-32" x="139.013672"/>
      </g>
     </g>
    </g>
    <g id="ytick_8">
     <g id="line2d_15">
      <path d="M 45.774688 29.081392 
L 423.214687 29.081392 
" clip-path="url(#pee5781b86c)" style="fill: none; stroke: #b0b0b0; stroke-opacity: 0.3; stroke-width: 0.8; stroke-linecap: square"/>
     </g>
     <g id="line2d_16">
      <g>
       <use xlink:href="#m0220d822c2" x="45.774688" y="29.081392" style="stroke: #000000; stroke-width: 0.8"/>
      </g>
     </g>
     <g id="text_8">
      <!-- 0.94 -->
      <g transform="translate(21.259844 32.302408) scale(0.09 -0.09)">
       <use xlink:href="#ArialMT-30"/>
       <use xlink:href="#ArialMT-2e" x="55.615234"/>
       <use xlink:href="#ArialMT-39" x="83.398438"/>
       <use xlink:href="#ArialMT-34" x="139.013672"/>
      </g>
     </g>
    </g>
    <g id="text_9">
     <!-- R² Score -->
     <g transform="translate(15.073594 205.393984) rotate(-90) scale(0.11 -0.11)">
      <defs>
       <path id="ArialMT-52" d="M 503 0 
L 503 4581 
L 2534 4581 
Q 3147 4581 3465 4457 
Q 3784 4334 3975 4021 
Q 4166 3709 4166 3331 
Q 4166 2844 3850 2509 
Q 3534 2175 2875 2084 
Q 3116 1969 3241 1856 
Q 3506 1613 3744 1247 
L 4541 0 
L 3778 0 
L 3172 953 
Q 2906 1366 2734 1584 
Q 2563 1803 2427 1890 
Q 2291 1978 2150 2013 
Q 2047 2034 1813 2034 
L 1109 2034 
L 1109 0 
L 503 0 
z
M 1109 2559 
L 2413 2559 
Q 2828 2559 3062 2645 
Q 3297 2731 3419 2920 
Q 3541 3109 3541 3331 
Q 3541 3656 3305 3865 
Q 3069 4075 2559 4075 
L 1109 4075 
L 1109 2559 
z
" transform="scale(0.015625)"/>
       <path id="ArialMT-b2" d="M 78 2291 
Q 97 2469 225 2647 
Q 422 2916 872 3242 
Q 1322 3569 1406 3663 
Q 1522 3791 1522 3925 
Q 1522 4075 1412 4172 
Q 1303 4269 1091 4269 
Q 884 4269 782 4195 
Q 681 4122 616 3913 
L 144 3963 
Q 234 4309 457 4473 
Q 681 4638 1100 4638 
Q 1572 4638 1792 4453 
Q 2013 4269 2013 4003 
Q 2013 3741 1828 3506 
Q 1688 3331 1188 2972 
Q 928 2781 819 2669 
L 2025 2669 
L 2025 2291 
L 78 2291 
z
" transform="scale(0.015625)"/>
       <path id="ArialMT-20" transform="scale(0.015625)"/>
       <path id="ArialMT-53" d="M 288 1472 
L 859 1522 
Q 900 1178 1048 958 
Q 1197 738 1509 602 
Q 1822 466 2213 466 
Q 2559 466 2825 569 
Q 3091 672 3220 851 
Q 3350 1031 3350 1244 
Q 3350 1459 3225 1620 
Q 3100 1781 2813 1891 
Q 2628 1963 1997 2114 
Q 1366 2266 1113 2400 
Q 784 2572 623 2826 
Q 463 3081 463 3397 
Q 463 3744 659 4045 
Q 856 4347 1234 4503 
Q 1613 4659 2075 4659 
Q 2584 4659 2973 4495 
Q 3363 4331 3572 4012 
Q 3781 3694 3797 3291 
L 3216 3247 
Q 3169 3681 2898 3903 
Q 2628 4125 2100 4125 
Q 1550 4125 1298 3923 
Q 1047 3722 1047 3438 
Q 1047 3191 1225 3031 
Q 1400 2872 2139 2705 
Q 2878 2538 3153 2413 
Q 3553 2228 3743 1945 
Q 3934 1663 3934 1294 
Q 3934 928 3725 604 
Q 3516 281 3123 101 
Q 2731 -78 2241 -78 
Q 1619 -78 1198 103 
Q 778 284 539 648 
Q 300 1013 288 1472 
z
" transform="scale(0.015625)"/>
       <path id="ArialMT-63" d="M 2588 1216 
L 3141 1144 
Q 3050 572 2676 248 
Q 2303 -75 1759 -75 
Q 1078 -75 664 370 
Q 250 816 250 1647 
Q 250 2184 428 2587 
Q 606 2991 970 3192 
Q 1334 3394 1763 3394 
Q 2303 3394 2647 3120 
Q 2991 2847 3088 2344 
L 2541 2259 
Q 2463 2594 2264 2762 
Q 2066 2931 1784 2931 
Q 1359 2931 1093 2626 
Q 828 2322 828 1663 
Q 828 994 1084 691 
Q 1341 388 1753 388 
Q 2084 388 2306 591 
Q 2528 794 2588 1216 
z
" transform="scale(0.015625)"/>
       <path id="ArialMT-6f" d="M 213 1659 
Q 213 2581 725 3025 
Q 1153 3394 1769 3394 
Q 2453 3394 2887 2945 
Q 3322 2497 3322 1706 
Q 3322 1066 3130 698 
Q 2938 331 2570 128 
Q 2203 -75 1769 -75 
Q 1072 -75 642 372 
Q 213 819 213 1659 
z
M 791 1659 
Q 791 1022 1069 705 
Q 1347 388 1769 388 
Q 2188 388 2466 706 
Q 2744 1025 2744 1678 
Q 2744 2294 2464 2611 
Q 2184 2928 1769 2928 
Q 1347 2928 1069 2612 
Q 791 2297 791 1659 
z
" transform="scale(0.015625)"/>
       <path id="ArialMT-72" d="M 416 0 
L 416 3319 
L 922 3319 
L 922 2816 
Q 1116 3169 1280 3281 
Q 1444 3394 1641 3394 
Q 1925 3394 2219 3213 
L 2025 2691 
Q 1819 2813 1613 2813 
Q 1428 2813 1281 2702 
Q 1134 2591 1072 2394 
Q 978 2094 978 1738 
L 978 0 
L 416 0 
z
" transform="scale(0.015625)"/>
       <path id="ArialMT-65" d="M 2694 1069 
L 3275 997 
Q 3138 488 2766 206 
Q 2394 -75 1816 -75 
Q 1088 -75 661 373 
Q 234 822 234 1631 
Q 234 2469 665 2931 
Q 1097 3394 1784 3394 
Q 2450 3394 2872 2941 
Q 3294 2488 3294 1666 
Q 3294 1616 3291 1516 
L 816 1516 
Q 847 969 1125 678 
Q 1403 388 1819 388 
Q 2128 388 2347 550 
Q 2566 713 2694 1069 
z
M 847 1978 
L 2700 1978 
Q 2663 2397 2488 2606 
Q 2219 2931 1791 2931 
Q 1403 2931 1139 2672 
Q 875 2413 847 1978 
z
" transform="scale(0.015625)"/>
      </defs>
      <use xlink:href="#ArialMT-52"/>
      <use xlink:href="#ArialMT-b2" x="72.216797"/>
      <use xlink:href="#ArialMT-20" x="105.517578"/>
      <use xlink:href="#ArialMT-53" x="133.300781"/>
      <use xlink:href="#ArialMT-63" x="200"/>
      <use xlink:href="#ArialMT-6f" x="250"/>
      <use xlink:href="#ArialMT-72" x="305.615234"/>
      <use xlink:href="#ArialMT-65" x="338.916016"/>
     </g>
    </g>
   </g>
   <g id="LineCollection_1">
    <path d="M 148.712869 186.929821 
L 320.276506 186.929821 
" clip-path="url(#pee5781b86c)" style="fill: none; stroke: #1f77b4; stroke-width: 1.5"/>
   </g>
   <g id="LineCollection_2">
    <path d="M 148.712869 36.64108 
L 320.276506 36.64108 
" clip-path="url(#pee5781b86c)" style="fill: none; stroke: #1f77b4; stroke-width: 1.5"/>
   </g>
   <g id="LineCollection_3">
    <path d="M 148.712869 330.75017 
L 320.276506 330.75017 
" clip-path="url(#pee5781b86c)" style="fill: none; stroke: #1f77b4; stroke-width: 1.5"/>
   </g>
   <g id="LineCollection_4">
    <path d="M 234.494687 330.75017 
L 234.494687 36.64108 
" clip-path="url(#pee5781b86c)" style="fill: none; stroke: #1f77b4; stroke-width: 1.5"/>
   </g>
   <g id="LineCollection_5">
    <path d="M 148.712869 161.266459 
L 320.276506 161.266459 
" clip-path="url(#pee5781b86c)" style="fill: none; stroke: #1f77b4; stroke-width: 1.5"/>
   </g>
   <g id="line2d_17">
    <path d="M 45.774688 186.929821 
L 423.214687 186.929821 
" clip-path="url(#pee5781b86c)" style="fill: none; stroke-dasharray: 5.55,2.4; stroke-dashoffset: 0; stroke: #008000; stroke-width: 1.5"/>
   </g>
   <g id="patch_3">
    <path d="M 45.774688 345.455625 
L 45.774688 21.935625 
" style="fill: none; stroke: #000000; stroke-width: 0.8; stroke-linejoin: miter; stroke-linecap: square"/>
   </g>
   <g id="patch_4">
    <path d="M 423.214687 345.455625 
L 423.214687 21.935625 
" style="fill: none; stroke: #000000; stroke-width: 0.8; stroke-linejoin: miter; stroke-linecap: square"/>
   </g>
   <g id="patch_5">
    <path d="M 45.774687 345.455625 
L 423.214687 345.455625 
" style="fill: none; stroke: #000000; stroke-width: 0.8; stroke-linejoin: miter; stroke-linecap: square"/>
   </g>
   <g id="patch_6">
    <path d="M 45.774687 21.935625 
L 423.214687 21.935625 
" style="fill: none; stroke: #000000; stroke-width: 0.8; stroke-linejoin: miter; stroke-linecap: square"/>
   </g>
   <g id="text_10">
    <!-- gs1 -->
    <g transform="translate(197.894552 178.006928) scale(0.08 -0.08)">
     <defs>
      <path id="ArialMT-67" d="M 319 -275 
L 866 -356 
Q 900 -609 1056 -725 
Q 1266 -881 1628 -881 
Q 2019 -881 2231 -725 
Q 2444 -569 2519 -288 
Q 2563 -116 2559 434 
Q 2191 0 1641 0 
Q 956 0 581 494 
Q 206 988 206 1678 
Q 206 2153 378 2554 
Q 550 2956 876 3175 
Q 1203 3394 1644 3394 
Q 2231 3394 2613 2919 
L 2613 3319 
L 3131 3319 
L 3131 450 
Q 3131 -325 2973 -648 
Q 2816 -972 2473 -1159 
Q 2131 -1347 1631 -1347 
Q 1038 -1347 672 -1080 
Q 306 -813 319 -275 
z
M 784 1719 
Q 784 1066 1043 766 
Q 1303 466 1694 466 
Q 2081 466 2343 764 
Q 2606 1063 2606 1700 
Q 2606 2309 2336 2618 
Q 2066 2928 1684 2928 
Q 1309 2928 1046 2623 
Q 784 2319 784 1719 
z
" transform="scale(0.015625)"/>
      <path id="ArialMT-73" d="M 197 991 
L 753 1078 
Q 800 744 1014 566 
Q 1228 388 1613 388 
Q 2000 388 2187 545 
Q 2375 703 2375 916 
Q 2375 1106 2209 1216 
Q 2094 1291 1634 1406 
Q 1016 1563 777 1677 
Q 538 1791 414 1992 
Q 291 2194 291 2438 
Q 291 2659 392 2848 
Q 494 3038 669 3163 
Q 800 3259 1026 3326 
Q 1253 3394 1513 3394 
Q 1903 3394 2198 3281 
Q 2494 3169 2634 2976 
Q 2775 2784 2828 2463 
L 2278 2388 
Q 2241 2644 2061 2787 
Q 1881 2931 1553 2931 
Q 1166 2931 1000 2803 
Q 834 2675 834 2503 
Q 834 2394 903 2306 
Q 972 2216 1119 2156 
Q 1203 2125 1616 2013 
Q 2213 1853 2448 1751 
Q 2684 1650 2818 1456 
Q 2953 1263 2953 975 
Q 2953 694 2789 445 
Q 2625 197 2315 61 
Q 2006 -75 1616 -75 
Q 969 -75 630 194 
Q 291 463 197 991 
z
" transform="scale(0.015625)"/>
      <path id="ArialMT-31" d="M 2384 0 
L 1822 0 
L 1822 3584 
Q 1619 3391 1289 3197 
Q 959 3003 697 2906 
L 697 3450 
Q 1169 3672 1522 3987 
Q 1875 4303 2022 4600 
L 2384 4600 
L 2384 0 
z
" transform="scale(0.015625)"/>
     </defs>
     <use xlink:href="#ArialMT-67"/>
     <use xlink:href="#ArialMT-73" x="55.615234"/>
     <use xlink:href="#ArialMT-31" x="105.615234"/>
    </g>
   </g>
   <g id="text_11">
    <!-- gs2 -->
    <g transform="translate(197.399502 102.978983) scale(0.08 -0.08)">
     <use xlink:href="#ArialMT-67"/>
     <use xlink:href="#ArialMT-73" x="55.615234"/>
     <use xlink:href="#ArialMT-32" x="105.615234"/>
    </g>
   </g>
   <g id="text_12">
    <!-- hww -->
    <g transform="translate(221.764394 201.279459) scale(0.08 -0.08)">
     <defs>
      <path id="ArialMT-68" d="M 422 0 
L 422 4581 
L 984 4581 
L 984 2938 
Q 1378 3394 1978 3394 
Q 2347 3394 2619 3248 
Q 2891 3103 3008 2847 
Q 3125 2591 3125 2103 
L 3125 0 
L 2563 0 
L 2563 2103 
Q 2563 2525 2380 2717 
Q 2197 2909 1863 2909 
Q 1613 2909 1392 2779 
Q 1172 2650 1078 2428 
Q 984 2206 984 1816 
L 984 0 
L 422 0 
z
" transform="scale(0.015625)"/>
      <path id="ArialMT-77" d="M 1034 0 
L 19 3319 
L 600 3319 
L 1128 1403 
L 1325 691 
Q 1338 744 1497 1375 
L 2025 3319 
L 2603 3319 
L 3100 1394 
L 3266 759 
L 3456 1400 
L 4025 3319 
L 4572 3319 
L 3534 0 
L 2950 0 
L 2422 1988 
L 2294 2553 
L 1622 0 
L 1034 0 
z
" transform="scale(0.015625)"/>
     </defs>
     <use xlink:href="#ArialMT-68"/>
     <use xlink:href="#ArialMT-77" x="55.615234"/>
     <use xlink:href="#ArialMT-77" x="127.832031"/>
    </g>
   </g>
   <g id="text_13">
    <!-- jz -->
    <g transform="translate(308.901698 149.976816) scale(0.08 -0.08)">
     <defs>
      <path id="ArialMT-6a" d="M 419 3928 
L 419 4581 
L 981 4581 
L 981 3928 
L 419 3928 
z
M -294 -1288 
L -188 -809 
Q -19 -853 78 -853 
Q 250 -853 334 -739 
Q 419 -625 419 -169 
L 419 3319 
L 981 3319 
L 981 -181 
Q 981 -794 822 -1034 
Q 619 -1347 147 -1347 
Q -81 -1347 -294 -1288 
z
" transform="scale(0.015625)"/>
      <path id="ArialMT-7a" d="M 125 0 
L 125 456 
L 2238 2881 
Q 1878 2863 1603 2863 
L 250 2863 
L 250 3319 
L 2963 3319 
L 2963 2947 
L 1166 841 
L 819 456 
Q 1197 484 1528 484 
L 3063 484 
L 3063 0 
L 125 0 
z
" transform="scale(0.015625)"/>
     </defs>
     <use xlink:href="#ArialMT-6a"/>
     <use xlink:href="#ArialMT-7a" x="22.216797"/>
    </g>
   </g>
   <g id="text_14">
    <!-- lx1 -->
    <g transform="translate(237.716789 157.519984) scale(0.08 -0.08)">
     <defs>
      <path id="ArialMT-6c" d="M 409 0 
L 409 4581 
L 972 4581 
L 972 0 
L 409 0 
z
" transform="scale(0.015625)"/>
      <path id="ArialMT-78" d="M 47 0 
L 1259 1725 
L 138 3319 
L 841 3319 
L 1350 2541 
Q 1494 2319 1581 2169 
Q 1719 2375 1834 2534 
L 2394 3319 
L 3066 3319 
L 1919 1756 
L 3153 0 
L 2463 0 
L 1781 1031 
L 1600 1309 
L 728 0 
L 47 0 
z
" transform="scale(0.015625)"/>
     </defs>
     <use xlink:href="#ArialMT-6c"/>
     <use xlink:href="#ArialMT-78" x="22.216797"/>
     <use xlink:href="#ArialMT-31" x="72.216797"/>
    </g>
   </g>
   <g id="text_15">
    <!-- lx2 -->
    <g transform="translate(237.01151 329.16017) scale(0.08 -0.08)">
     <use xlink:href="#ArialMT-6c"/>
     <use xlink:href="#ArialMT-78" x="22.216797"/>
     <use xlink:href="#ArialMT-32" x="72.216797"/>
    </g>
   </g>
   <g id="text_16">
    <!-- lx3 -->
    <g transform="translate(233.93157 205.529352) scale(0.08 -0.08)">
     <defs>
      <path id="ArialMT-33" d="M 269 1209 
L 831 1284 
Q 928 806 1161 595 
Q 1394 384 1728 384 
Q 2125 384 2398 659 
Q 2672 934 2672 1341 
Q 2672 1728 2419 1979 
Q 2166 2231 1775 2231 
Q 1616 2231 1378 2169 
L 1441 2663 
Q 1497 2656 1531 2656 
Q 1891 2656 2178 2843 
Q 2466 3031 2466 3422 
Q 2466 3731 2256 3934 
Q 2047 4138 1716 4138 
Q 1388 4138 1169 3931 
Q 950 3725 888 3313 
L 325 3413 
Q 428 3978 793 4289 
Q 1159 4600 1703 4600 
Q 2078 4600 2393 4439 
Q 2709 4278 2876 4000 
Q 3044 3722 3044 3409 
Q 3044 3113 2884 2869 
Q 2725 2625 2413 2481 
Q 2819 2388 3044 2092 
Q 3269 1797 3269 1353 
Q 3269 753 2831 336 
Q 2394 -81 1725 -81 
Q 1122 -81 723 278 
Q 325 638 269 1209 
z
" transform="scale(0.015625)"/>
     </defs>
     <use xlink:href="#ArialMT-6c"/>
     <use xlink:href="#ArialMT-78" x="22.216797"/>
     <use xlink:href="#ArialMT-33" x="72.216797"/>
    </g>
   </g>
   <g id="text_17">
    <!-- pm -->
    <g transform="translate(219.047877 314.686751) scale(0.08 -0.08)">
     <defs>
      <path id="ArialMT-70" d="M 422 -1272 
L 422 3319 
L 934 3319 
L 934 2888 
Q 1116 3141 1344 3267 
Q 1572 3394 1897 3394 
Q 2322 3394 2647 3175 
Q 2972 2956 3137 2557 
Q 3303 2159 3303 1684 
Q 3303 1175 3120 767 
Q 2938 359 2589 142 
Q 2241 -75 1856 -75 
Q 1575 -75 1351 44 
Q 1128 163 984 344 
L 984 -1272 
L 422 -1272 
z
M 931 1641 
Q 931 1000 1190 694 
Q 1450 388 1819 388 
Q 2194 388 2461 705 
Q 2728 1022 2728 1688 
Q 2728 2322 2467 2637 
Q 2206 2953 1844 2953 
Q 1484 2953 1207 2617 
Q 931 2281 931 1641 
z
" transform="scale(0.015625)"/>
      <path id="ArialMT-6d" d="M 422 0 
L 422 3319 
L 925 3319 
L 925 2853 
Q 1081 3097 1340 3245 
Q 1600 3394 1931 3394 
Q 2300 3394 2536 3241 
Q 2772 3088 2869 2813 
Q 3263 3394 3894 3394 
Q 4388 3394 4653 3120 
Q 4919 2847 4919 2278 
L 4919 0 
L 4359 0 
L 4359 2091 
Q 4359 2428 4304 2576 
Q 4250 2725 4106 2815 
Q 3963 2906 3769 2906 
Q 3419 2906 3187 2673 
Q 2956 2441 2956 1928 
L 2956 0 
L 2394 0 
L 2394 2156 
Q 2394 2531 2256 2718 
Q 2119 2906 1806 2906 
Q 1569 2906 1367 2781 
Q 1166 2656 1075 2415 
Q 984 2175 984 1722 
L 984 0 
L 422 0 
z
" transform="scale(0.015625)"/>
     </defs>
     <use xlink:href="#ArialMT-70"/>
     <use xlink:href="#ArialMT-6d" x="55.615234"/>
    </g>
   </g>
   <g id="text_18">
    <!-- ysp -->
    <g transform="translate(252.034545 159.582709) scale(0.08 -0.08)">
     <defs>
      <path id="ArialMT-79" d="M 397 -1278 
L 334 -750 
Q 519 -800 656 -800 
Q 844 -800 956 -737 
Q 1069 -675 1141 -563 
Q 1194 -478 1313 -144 
Q 1328 -97 1363 -6 
L 103 3319 
L 709 3319 
L 1400 1397 
Q 1534 1031 1641 628 
Q 1738 1016 1872 1384 
L 2581 3319 
L 3144 3319 
L 1881 -56 
Q 1678 -603 1566 -809 
Q 1416 -1088 1222 -1217 
Q 1028 -1347 759 -1347 
Q 597 -1347 397 -1278 
z
" transform="scale(0.015625)"/>
     </defs>
     <use xlink:href="#ArialMT-79"/>
     <use xlink:href="#ArialMT-73" x="50"/>
     <use xlink:href="#ArialMT-70" x="100"/>
    </g>
   </g>
   <g id="text_19">
    <!-- zch1 -->
    <g transform="translate(212.174785 126.648073) scale(0.08 -0.08)">
     <use xlink:href="#ArialMT-7a"/>
     <use xlink:href="#ArialMT-63" x="50"/>
     <use xlink:href="#ArialMT-68" x="100"/>
     <use xlink:href="#ArialMT-31" x="155.615234"/>
    </g>
   </g>
   <g id="text_20">
    <!-- zch2 -->
    <g transform="translate(299.209709 326.86488) scale(0.08 -0.08)">
     <use xlink:href="#ArialMT-7a"/>
     <use xlink:href="#ArialMT-63" x="50"/>
     <use xlink:href="#ArialMT-68" x="100"/>
     <use xlink:href="#ArialMT-32" x="155.615234"/>
    </g>
   </g>
   <g id="text_21">
    <!-- zm -->
    <g transform="translate(238.542263 121.757486) scale(0.08 -0.08)">
     <use xlink:href="#ArialMT-7a"/>
     <use xlink:href="#ArialMT-6d" x="50"/>
    </g>
   </g>
   <g id="text_22">
    <!-- zxl -->
    <g transform="translate(229.503455 35.05108) scale(0.08 -0.08)">
     <use xlink:href="#ArialMT-7a"/>
     <use xlink:href="#ArialMT-78" x="50"/>
     <use xlink:href="#ArialMT-6c" x="100"/>
    </g>
   </g>
   <g id="text_23">
    <!-- (A) R² Distribution Across Participants -->
    <g transform="translate(134.135312 15.935625) scale(0.12 -0.12)">
     <defs>
      <path id="ArialMT-28" d="M 1497 -1347 
Q 1031 -759 709 28 
Q 388 816 388 1659 
Q 388 2403 628 3084 
Q 909 3875 1497 4659 
L 1900 4659 
Q 1522 4009 1400 3731 
Q 1209 3300 1100 2831 
Q 966 2247 966 1656 
Q 966 153 1900 -1347 
L 1497 -1347 
z
" transform="scale(0.015625)"/>
      <path id="ArialMT-41" d="M -9 0 
L 1750 4581 
L 2403 4581 
L 4278 0 
L 3588 0 
L 3053 1388 
L 1138 1388 
L 634 0 
L -9 0 
z
M 1313 1881 
L 2866 1881 
L 2388 3150 
Q 2169 3728 2063 4100 
Q 1975 3659 1816 3225 
L 1313 1881 
z
" transform="scale(0.015625)"/>
      <path id="ArialMT-29" d="M 791 -1347 
L 388 -1347 
Q 1322 153 1322 1656 
Q 1322 2244 1188 2822 
Q 1081 3291 891 3722 
Q 769 4003 388 4659 
L 791 4659 
Q 1378 3875 1659 3084 
Q 1900 2403 1900 1659 
Q 1900 816 1576 28 
Q 1253 -759 791 -1347 
z
" transform="scale(0.015625)"/>
      <path id="ArialMT-44" d="M 494 0 
L 494 4581 
L 2072 4581 
Q 2606 4581 2888 4516 
Q 3281 4425 3559 4188 
Q 3922 3881 4101 3404 
Q 4281 2928 4281 2316 
Q 4281 1794 4159 1391 
Q 4038 988 3847 723 
Q 3656 459 3429 307 
Q 3203 156 2883 78 
Q 2563 0 2147 0 
L 494 0 
z
M 1100 541 
L 2078 541 
Q 2531 541 2789 625 
Q 3047 709 3200 863 
Q 3416 1078 3536 1442 
Q 3656 1806 3656 2325 
Q 3656 3044 3420 3430 
Q 3184 3816 2847 3947 
Q 2603 4041 2063 4041 
L 1100 4041 
L 1100 541 
z
" transform="scale(0.015625)"/>
      <path id="ArialMT-69" d="M 425 3934 
L 425 4581 
L 988 4581 
L 988 3934 
L 425 3934 
z
M 425 0 
L 425 3319 
L 988 3319 
L 988 0 
L 425 0 
z
" transform="scale(0.015625)"/>
      <path id="ArialMT-74" d="M 1650 503 
L 1731 6 
Q 1494 -44 1306 -44 
Q 1000 -44 831 53 
Q 663 150 594 308 
Q 525 466 525 972 
L 525 2881 
L 113 2881 
L 113 3319 
L 525 3319 
L 525 4141 
L 1084 4478 
L 1084 3319 
L 1650 3319 
L 1650 2881 
L 1084 2881 
L 1084 941 
Q 1084 700 1114 631 
Q 1144 563 1211 522 
Q 1278 481 1403 481 
Q 1497 481 1650 503 
z
" transform="scale(0.015625)"/>
      <path id="ArialMT-62" d="M 941 0 
L 419 0 
L 419 4581 
L 981 4581 
L 981 2947 
Q 1338 3394 1891 3394 
Q 2197 3394 2470 3270 
Q 2744 3147 2920 2923 
Q 3097 2700 3197 2384 
Q 3297 2069 3297 1709 
Q 3297 856 2875 390 
Q 2453 -75 1863 -75 
Q 1275 -75 941 416 
L 941 0 
z
M 934 1684 
Q 934 1088 1097 822 
Q 1363 388 1816 388 
Q 2184 388 2453 708 
Q 2722 1028 2722 1663 
Q 2722 2313 2464 2622 
Q 2206 2931 1841 2931 
Q 1472 2931 1203 2611 
Q 934 2291 934 1684 
z
" transform="scale(0.015625)"/>
      <path id="ArialMT-75" d="M 2597 0 
L 2597 488 
Q 2209 -75 1544 -75 
Q 1250 -75 995 37 
Q 741 150 617 320 
Q 494 491 444 738 
Q 409 903 409 1263 
L 409 3319 
L 972 3319 
L 972 1478 
Q 972 1038 1006 884 
Q 1059 663 1231 536 
Q 1403 409 1656 409 
Q 1909 409 2131 539 
Q 2353 669 2445 892 
Q 2538 1116 2538 1541 
L 2538 3319 
L 3100 3319 
L 3100 0 
L 2597 0 
z
" transform="scale(0.015625)"/>
      <path id="ArialMT-6e" d="M 422 0 
L 422 3319 
L 928 3319 
L 928 2847 
Q 1294 3394 1984 3394 
Q 2284 3394 2536 3286 
Q 2788 3178 2913 3003 
Q 3038 2828 3088 2588 
Q 3119 2431 3119 2041 
L 3119 0 
L 2556 0 
L 2556 2019 
Q 2556 2363 2490 2533 
Q 2425 2703 2258 2804 
Q 2091 2906 1866 2906 
Q 1506 2906 1245 2678 
Q 984 2450 984 1813 
L 984 0 
L 422 0 
z
" transform="scale(0.015625)"/>
      <path id="ArialMT-50" d="M 494 0 
L 494 4581 
L 2222 4581 
Q 2678 4581 2919 4538 
Q 3256 4481 3484 4323 
Q 3713 4166 3852 3881 
Q 3991 3597 3991 3256 
Q 3991 2672 3619 2267 
Q 3247 1863 2275 1863 
L 1100 1863 
L 1100 0 
L 494 0 
z
M 1100 2403 
L 2284 2403 
Q 2872 2403 3119 2622 
Q 3366 2841 3366 3238 
Q 3366 3525 3220 3729 
Q 3075 3934 2838 4000 
Q 2684 4041 2272 4041 
L 1100 4041 
L 1100 2403 
z
" transform="scale(0.015625)"/>
      <path id="ArialMT-61" d="M 2588 409 
Q 2275 144 1986 34 
Q 1697 -75 1366 -75 
Q 819 -75 525 192 
Q 231 459 231 875 
Q 231 1119 342 1320 
Q 453 1522 633 1644 
Q 813 1766 1038 1828 
Q 1203 1872 1538 1913 
Q 2219 1994 2541 2106 
Q 2544 2222 2544 2253 
Q 2544 2597 2384 2738 
Q 2169 2928 1744 2928 
Q 1347 2928 1158 2789 
Q 969 2650 878 2297 
L 328 2372 
Q 403 2725 575 2942 
Q 747 3159 1072 3276 
Q 1397 3394 1825 3394 
Q 2250 3394 2515 3294 
Q 2781 3194 2906 3042 
Q 3031 2891 3081 2659 
Q 3109 2516 3109 2141 
L 3109 1391 
Q 3109 606 3145 398 
Q 3181 191 3288 0 
L 2700 0 
Q 2613 175 2588 409 
z
M 2541 1666 
Q 2234 1541 1622 1453 
Q 1275 1403 1131 1340 
Q 988 1278 909 1158 
Q 831 1038 831 891 
Q 831 666 1001 516 
Q 1172 366 1500 366 
Q 1825 366 2078 508 
Q 2331 650 2450 897 
Q 2541 1088 2541 1459 
L 2541 1666 
z
" transform="scale(0.015625)"/>
     </defs>
     <use xlink:href="#ArialMT-28"/>
     <use xlink:href="#ArialMT-41" x="33.300781"/>
     <use xlink:href="#ArialMT-29" x="100"/>
     <use xlink:href="#ArialMT-20" x="133.300781"/>
     <use xlink:href="#ArialMT-52" x="161.083984"/>
     <use xlink:href="#ArialMT-b2" x="233.300781"/>
     <use xlink:href="#ArialMT-20" x="266.601562"/>
     <use xlink:href="#ArialMT-44" x="294.384766"/>
     <use xlink:href="#ArialMT-69" x="366.601562"/>
     <use xlink:href="#ArialMT-73" x="388.818359"/>
     <use xlink:href="#ArialMT-74" x="438.818359"/>
     <use xlink:href="#ArialMT-72" x="466.601562"/>
     <use xlink:href="#ArialMT-69" x="499.902344"/>
     <use xlink:href="#ArialMT-62" x="522.119141"/>
     <use xlink:href="#ArialMT-75" x="577.734375"/>
     <use xlink:href="#ArialMT-74" x="633.349609"/>
     <use xlink:href="#ArialMT-69" x="661.132812"/>
     <use xlink:href="#ArialMT-6f" x="683.349609"/>
     <use xlink:href="#ArialMT-6e" x="738.964844"/>
     <use xlink:href="#ArialMT-20" x="794.580078"/>
     <use xlink:href="#ArialMT-41" x="816.863281"/>
     <use xlink:href="#ArialMT-63" x="883.5625"/>
     <use xlink:href="#ArialMT-72" x="933.5625"/>
     <use xlink:href="#ArialMT-6f" x="966.863281"/>
     <use xlink:href="#ArialMT-73" x="1022.478516"/>
     <use xlink:href="#ArialMT-73" x="1072.478516"/>
     <use xlink:href="#ArialMT-20" x="1122.478516"/>
     <use xlink:href="#ArialMT-50" x="1150.261719"/>
     <use xlink:href="#ArialMT-61" x="1216.960938"/>
     <use xlink:href="#ArialMT-72" x="1272.576172"/>
     <use xlink:href="#ArialMT-74" x="1305.876953"/>
     <use xlink:href="#ArialMT-69" x="1333.660156"/>
     <use xlink:href="#ArialMT-63" x="1355.876953"/>
     <use xlink:href="#ArialMT-69" x="1405.876953"/>
     <use xlink:href="#ArialMT-70" x="1428.09375"/>
     <use xlink:href="#ArialMT-61" x="1483.708984"/>
     <use xlink:href="#ArialMT-6e" x="1539.324219"/>
     <use xlink:href="#ArialMT-74" x="1594.939453"/>
     <use xlink:href="#ArialMT-73" x="1622.722656"/>
    </g>
   </g>
   <g id="PathCollection_1">
    <defs>
     <path id="mbee71b3d22" d="M 0 4.472136 
C 1.186024 4.472136 2.323632 4.000923 3.162278 3.162278 
C 4.000923 2.323632 4.472136 1.186024 4.472136 0 
C 4.472136 -1.186024 4.000923 -2.323632 3.162278 -3.162278 
C 2.323632 -4.000923 1.186024 -4.472136 0 -4.472136 
C -1.186024 -4.472136 -2.323632 -4.000923 -3.162278 -3.162278 
C -4.000923 -2.323632 -4.472136 -1.186024 -4.472136 0 
C -4.472136 1.186024 -4.000923 2.323632 -3.162278 3.162278 
C -2.323632 4.000923 -1.186024 4.472136 0 4.472136 
z
" style="stroke: #e53935; stroke-opacity: 0.8"/>
    </defs>
    <g clip-path="url(#pee5781b86c)">
     <use xlink:href="#mbee71b3d22" x="204.343302" y="179.690678" style="fill: #e53935; fill-opacity: 0.8; stroke: #e53935; stroke-opacity: 0.8"/>
     <use xlink:href="#mbee71b3d22" x="203.848252" y="104.662733" style="fill: #e53935; fill-opacity: 0.8; stroke: #e53935; stroke-opacity: 0.8"/>
     <use xlink:href="#mbee71b3d22" x="229.766269" y="202.869459" style="fill: #e53935; fill-opacity: 0.8; stroke: #e53935; stroke-opacity: 0.8"/>
     <use xlink:href="#mbee71b3d22" x="311.790448" y="151.660566" style="fill: #e53935; fill-opacity: 0.8; stroke: #e53935; stroke-opacity: 0.8"/>
     <use xlink:href="#mbee71b3d22" x="242.829914" y="159.109984" style="fill: #e53935; fill-opacity: 0.8; stroke: #e53935; stroke-opacity: 0.8"/>
     <use xlink:href="#mbee71b3d22" x="242.124635" y="330.75017" style="fill: #e53935; fill-opacity: 0.8; stroke: #e53935; stroke-opacity: 0.8"/>
     <use xlink:href="#mbee71b3d22" x="239.044695" y="207.119352" style="fill: #e53935; fill-opacity: 0.8; stroke: #e53935; stroke-opacity: 0.8"/>
     <use xlink:href="#mbee71b3d22" x="224.604127" y="316.276751" style="fill: #e53935; fill-opacity: 0.8; stroke: #e53935; stroke-opacity: 0.8"/>
     <use xlink:href="#mbee71b3d22" x="258.25892" y="161.266459" style="fill: #e53935; fill-opacity: 0.8; stroke: #e53935; stroke-opacity: 0.8"/>
     <use xlink:href="#mbee71b3d22" x="220.623535" y="128.238073" style="fill: #e53935; fill-opacity: 0.8; stroke: #e53935; stroke-opacity: 0.8"/>
     <use xlink:href="#mbee71b3d22" x="307.658459" y="328.45488" style="fill: #e53935; fill-opacity: 0.8; stroke: #e53935; stroke-opacity: 0.8"/>
     <use xlink:href="#mbee71b3d22" x="243.874138" y="123.347486" style="fill: #e53935; fill-opacity: 0.8; stroke: #e53935; stroke-opacity: 0.8"/>
     <use xlink:href="#mbee71b3d22" x="234.392205" y="36.64108" style="fill: #e53935; fill-opacity: 0.8; stroke: #e53935; stroke-opacity: 0.8"/>
    </g>
   </g>
   <g id="legend_1">
    <g id="patch_7">
     <path d="M 326.086406 340.955625 
L 416.914687 340.955625 
Q 418.714687 340.955625 418.714687 339.155625 
L 418.714687 327.324844 
Q 418.714687 325.524844 416.914687 325.524844 
L 326.086406 325.524844 
Q 324.286406 325.524844 324.286406 327.324844 
L 324.286406 339.155625 
Q 324.286406 340.955625 326.086406 340.955625 
z
" style="fill: #ffffff; opacity: 0.8; stroke: #cccccc; stroke-linejoin: miter"/>
    </g>
    <g id="line2d_18">
     <path d="M 327.886406 332.416875 
L 336.886406 332.416875 
L 345.886406 332.416875 
" style="fill: none; stroke-dasharray: 5.55,2.4; stroke-dashoffset: 0; stroke: #008000; stroke-width: 1.5"/>
    </g>
    <g id="text_24">
     <!-- Mean R²: 0.865 -->
     <g transform="translate(353.086406 335.566875) scale(0.09 -0.09)">
      <defs>
       <path id="ArialMT-4d" d="M 475 0 
L 475 4581 
L 1388 4581 
L 2472 1338 
Q 2622 884 2691 659 
Q 2769 909 2934 1394 
L 4031 4581 
L 4847 4581 
L 4847 0 
L 4263 0 
L 4263 3834 
L 2931 0 
L 2384 0 
L 1059 3900 
L 1059 0 
L 475 0 
z
" transform="scale(0.015625)"/>
       <path id="ArialMT-3a" d="M 578 2678 
L 578 3319 
L 1219 3319 
L 1219 2678 
L 578 2678 
z
M 578 0 
L 578 641 
L 1219 641 
L 1219 0 
L 578 0 
z
" transform="scale(0.015625)"/>
       <path id="ArialMT-35" d="M 266 1200 
L 856 1250 
Q 922 819 1161 601 
Q 1400 384 1738 384 
Q 2144 384 2425 690 
Q 2706 997 2706 1503 
Q 2706 1984 2436 2262 
Q 2166 2541 1728 2541 
Q 1456 2541 1237 2417 
Q 1019 2294 894 2097 
L 366 2166 
L 809 4519 
L 3088 4519 
L 3088 3981 
L 1259 3981 
L 1013 2750 
Q 1425 3038 1878 3038 
Q 2478 3038 2890 2622 
Q 3303 2206 3303 1553 
Q 3303 931 2941 478 
Q 2500 -78 1738 -78 
Q 1113 -78 717 272 
Q 322 622 266 1200 
z
" transform="scale(0.015625)"/>
      </defs>
      <use xlink:href="#ArialMT-4d"/>
      <use xlink:href="#ArialMT-65" x="83.300781"/>
      <use xlink:href="#ArialMT-61" x="138.916016"/>
      <use xlink:href="#ArialMT-6e" x="194.53125"/>
      <use xlink:href="#ArialMT-20" x="250.146484"/>
      <use xlink:href="#ArialMT-52" x="277.929688"/>
      <use xlink:href="#ArialMT-b2" x="350.146484"/>
      <use xlink:href="#ArialMT-3a" x="383.447266"/>
      <use xlink:href="#ArialMT-20" x="411.230469"/>
      <use xlink:href="#ArialMT-30" x="439.013672"/>
      <use xlink:href="#ArialMT-2e" x="494.628906"/>
      <use xlink:href="#ArialMT-38" x="522.412109"/>
      <use xlink:href="#ArialMT-36" x="578.027344"/>
      <use xlink:href="#ArialMT-35" x="633.642578"/>
     </g>
    </g>
   </g>
  </g>
  <g id="axes_2">
   <g id="patch_8">
    <path d="M 472.374687 345.455625 
L 849.814687 345.455625 
L 849.814687 21.935625 
L 472.374687 21.935625 
z
" style="fill: #ffffff"/>
   </g>
   <g id="matplotlib.axis_3"/>
   <g id="matplotlib.axis_4">
    <g id="ytick_9">
     <g id="line2d_19">
      <path d="M 472.374687 324.23355 
L 849.814687 324.23355 
" clip-path="url(#p777f0a5012)" style="fill: none; stroke: #b0b0b0; stroke-opacity: 0.3; stroke-width: 0.8; stroke-linecap: square"/>
     </g>
     <g id="line2d_20">
      <g>
       <use xlink:href="#m0220d822c2" x="472.374687" y="324.23355" style="stroke: #000000; stroke-width: 0.8"/>
      </g>
     </g>
     <g id="text_25">
      <!-- 0.07 -->
      <g transform="translate(447.859844 327.454566) scale(0.09 -0.09)">
       <defs>
        <path id="ArialMT-37" d="M 303 3981 
L 303 4522 
L 3269 4522 
L 3269 4084 
Q 2831 3619 2401 2847 
Q 1972 2075 1738 1259 
Q 1569 684 1522 0 
L 944 0 
Q 953 541 1156 1306 
Q 1359 2072 1739 2783 
Q 2119 3494 2547 3981 
L 303 3981 
z
" transform="scale(0.015625)"/>
       </defs>
       <use xlink:href="#ArialMT-30"/>
       <use xlink:href="#ArialMT-2e" x="55.615234"/>
       <use xlink:href="#ArialMT-30" x="83.398438"/>
       <use xlink:href="#ArialMT-37" x="139.013672"/>
      </g>
     </g>
    </g>
    <g id="ytick_10">
     <g id="line2d_21">
      <path d="M 472.374687 281.117513 
L 849.814687 281.117513 
" clip-path="url(#p777f0a5012)" style="fill: none; stroke: #b0b0b0; stroke-opacity: 0.3; stroke-width: 0.8; stroke-linecap: square"/>
     </g>
     <g id="line2d_22">
      <g>
       <use xlink:href="#m0220d822c2" x="472.374687" y="281.117513" style="stroke: #000000; stroke-width: 0.8"/>
      </g>
     </g>
     <g id="text_26">
      <!-- 0.08 -->
      <g transform="translate(447.859844 284.338528) scale(0.09 -0.09)">
       <use xlink:href="#ArialMT-30"/>
       <use xlink:href="#ArialMT-2e" x="55.615234"/>
       <use xlink:href="#ArialMT-30" x="83.398438"/>
       <use xlink:href="#ArialMT-38" x="139.013672"/>
      </g>
     </g>
    </g>
    <g id="ytick_11">
     <g id="line2d_23">
      <path d="M 472.374687 238.001476 
L 849.814687 238.001476 
" clip-path="url(#p777f0a5012)" style="fill: none; stroke: #b0b0b0; stroke-opacity: 0.3; stroke-width: 0.8; stroke-linecap: square"/>
     </g>
     <g id="line2d_24">
      <g>
       <use xlink:href="#m0220d822c2" x="472.374687" y="238.001476" style="stroke: #000000; stroke-width: 0.8"/>
      </g>
     </g>
     <g id="text_27">
      <!-- 0.09 -->
      <g transform="translate(447.859844 241.222491) scale(0.09 -0.09)">
       <use xlink:href="#ArialMT-30"/>
       <use xlink:href="#ArialMT-2e" x="55.615234"/>
       <use xlink:href="#ArialMT-30" x="83.398438"/>
       <use xlink:href="#ArialMT-39" x="139.013672"/>
      </g>
     </g>
    </g>
    <g id="ytick_12">
     <g id="line2d_25">
      <path d="M 472.374687 194.885438 
L 849.814687 194.885438 
" clip-path="url(#p777f0a5012)" style="fill: none; stroke: #b0b0b0; stroke-opacity: 0.3; stroke-width: 0.8; stroke-linecap: square"/>
     </g>
     <g id="line2d_26">
      <g>
       <use xlink:href="#m0220d822c2" x="472.374687" y="194.885438" style="stroke: #000000; stroke-width: 0.8"/>
      </g>
     </g>
     <g id="text_28">
      <!-- 0.10 -->
      <g transform="translate(447.859844 198.106454) scale(0.09 -0.09)">
       <use xlink:href="#ArialMT-30"/>
       <use xlink:href="#ArialMT-2e" x="55.615234"/>
       <use xlink:href="#ArialMT-31" x="83.398438"/>
       <use xlink:href="#ArialMT-30" x="139.013672"/>
      </g>
     </g>
    </g>
    <g id="ytick_13">
     <g id="line2d_27">
      <path d="M 472.374687 151.769401 
L 849.814687 151.769401 
" clip-path="url(#p777f0a5012)" style="fill: none; stroke: #b0b0b0; stroke-opacity: 0.3; stroke-width: 0.8; stroke-linecap: square"/>
     </g>
     <g id="line2d_28">
      <g>
       <use xlink:href="#m0220d822c2" x="472.374687" y="151.769401" style="stroke: #000000; stroke-width: 0.8"/>
      </g>
     </g>
     <g id="text_29">
      <!-- 0.11 -->
      <g transform="translate(448.523594 154.990417) scale(0.09 -0.09)">
       <use xlink:href="#ArialMT-30"/>
       <use xlink:href="#ArialMT-2e" x="55.615234"/>
       <use xlink:href="#ArialMT-31" x="83.398438"/>
       <use xlink:href="#ArialMT-31" x="131.638672"/>
      </g>
     </g>
    </g>
    <g id="ytick_14">
     <g id="line2d_29">
      <path d="M 472.374687 108.653364 
L 849.814687 108.653364 
" clip-path="url(#p777f0a5012)" style="fill: none; stroke: #b0b0b0; stroke-opacity: 0.3; stroke-width: 0.8; stroke-linecap: square"/>
     </g>
     <g id="line2d_30">
      <g>
       <use xlink:href="#m0220d822c2" x="472.374687" y="108.653364" style="stroke: #000000; stroke-width: 0.8"/>
      </g>
     </g>
     <g id="text_30">
      <!-- 0.12 -->
      <g transform="translate(447.859844 111.874379) scale(0.09 -0.09)">
       <use xlink:href="#ArialMT-30"/>
       <use xlink:href="#ArialMT-2e" x="55.615234"/>
       <use xlink:href="#ArialMT-31" x="83.398438"/>
       <use xlink:href="#ArialMT-32" x="139.013672"/>
      </g>
     </g>
    </g>
    <g id="ytick_15">
     <g id="line2d_31">
      <path d="M 472.374687 65.537326 
L 849.814687 65.537326 
" clip-path="url(#p777f0a5012)" style="fill: none; stroke: #b0b0b0; stroke-opacity: 0.3; stroke-width: 0.8; stroke-linecap: square"/>
     </g>
     <g id="line2d_32">
      <g>
       <use xlink:href="#m0220d822c2" x="472.374687" y="65.537326" style="stroke: #000000; stroke-width: 0.8"/>
      </g>
     </g>
     <g id="text_31">
      <!-- 0.13 -->
      <g transform="translate(447.859844 68.758342) scale(0.09 -0.09)">
       <use xlink:href="#ArialMT-30"/>
       <use xlink:href="#ArialMT-2e" x="55.615234"/>
       <use xlink:href="#ArialMT-31" x="83.398438"/>
       <use xlink:href="#ArialMT-33" x="139.013672"/>
      </g>
     </g>
    </g>
    <g id="ytick_16">
     <g id="line2d_33">
      <path d="M 472.374687 22.421289 
L 849.814687 22.421289 
" clip-path="url(#p777f0a5012)" style="fill: none; stroke: #b0b0b0; stroke-opacity: 0.3; stroke-width: 0.8; stroke-linecap: square"/>
     </g>
     <g id="line2d_34">
      <g>
       <use xlink:href="#m0220d822c2" x="472.374687" y="22.421289" style="stroke: #000000; stroke-width: 0.8"/>
      </g>
     </g>
     <g id="text_32">
      <!-- 0.14 -->
      <g transform="translate(447.859844 25.642305) scale(0.09 -0.09)">
       <use xlink:href="#ArialMT-30"/>
       <use xlink:href="#ArialMT-2e" x="55.615234"/>
       <use xlink:href="#ArialMT-31" x="83.398438"/>
       <use xlink:href="#ArialMT-34" x="139.013672"/>
      </g>
     </g>
    </g>
    <g id="text_33">
     <!-- RMSE -->
     <g transform="translate(441.673594 199.586328) rotate(-90) scale(0.11 -0.11)">
      <defs>
       <path id="ArialMT-45" d="M 506 0 
L 506 4581 
L 3819 4581 
L 3819 4041 
L 1113 4041 
L 1113 2638 
L 3647 2638 
L 3647 2100 
L 1113 2100 
L 1113 541 
L 3925 541 
L 3925 0 
L 506 0 
z
" transform="scale(0.015625)"/>
      </defs>
      <use xlink:href="#ArialMT-52"/>
      <use xlink:href="#ArialMT-4d" x="72.216797"/>
      <use xlink:href="#ArialMT-53" x="155.517578"/>
      <use xlink:href="#ArialMT-45" x="222.216797"/>
     </g>
    </g>
   </g>
   <g id="patch_9">
    <path d="M 566.734687 203.646729 
L 755.454687 203.646729 
L 755.454687 149.638286 
L 566.734687 149.638286 
L 566.734687 203.646729 
z
" clip-path="url(#p777f0a5012)" style="fill: #4caf50; opacity: 0.7; stroke: #000000; stroke-linejoin: miter"/>
   </g>
   <g id="line2d_35">
    <path d="M 661.094687 203.646729 
L 661.094687 222.950541 
" clip-path="url(#p777f0a5012)" style="fill: none; stroke: #000000; stroke-linecap: square"/>
   </g>
   <g id="line2d_36">
    <path d="M 661.094687 149.638286 
L 661.094687 149.638286 
" clip-path="url(#p777f0a5012)" style="fill: none; stroke: #000000; stroke-linecap: square"/>
   </g>
   <g id="line2d_37">
    <path d="M 613.914688 222.950541 
L 708.274687 222.950541 
" clip-path="url(#p777f0a5012)" style="fill: none; stroke: #000000; stroke-linecap: square"/>
   </g>
   <g id="line2d_38">
    <path d="M 613.914688 149.638286 
L 708.274687 149.638286 
" clip-path="url(#p777f0a5012)" style="fill: none; stroke: #000000; stroke-linecap: square"/>
   </g>
   <g id="line2d_39">
    <defs>
     <path id="ma37c13a922" d="M 0 3 
C 0.795609 3 1.55874 2.683901 2.12132 2.12132 
C 2.683901 1.55874 3 0.795609 3 0 
C 3 -0.795609 2.683901 -1.55874 2.12132 -2.12132 
C 1.55874 -2.683901 0.795609 -3 0 -3 
C -0.795609 -3 -1.55874 -2.683901 -2.12132 -2.12132 
C -2.683901 -1.55874 -3 -0.795609 -3 0 
C -3 0.795609 -2.683901 1.55874 -2.12132 2.12132 
C -1.55874 2.683901 -0.795609 3 0 3 
z
" style="stroke: #000000"/>
    </defs>
    <g clip-path="url(#p777f0a5012)">
     <use xlink:href="#ma37c13a922" x="661.094687" y="330.75017" style="fill-opacity: 0; stroke: #000000"/>
     <use xlink:href="#ma37c13a922" x="661.094687" y="57.59316" style="fill-opacity: 0; stroke: #000000"/>
     <use xlink:href="#ma37c13a922" x="661.094687" y="64.544986" style="fill-opacity: 0; stroke: #000000"/>
     <use xlink:href="#ma37c13a922" x="661.094687" y="36.64108" style="fill-opacity: 0; stroke: #000000"/>
    </g>
   </g>
   <g id="line2d_40">
    <path d="M 566.734687 170.014719 
L 755.454687 170.014719 
" clip-path="url(#p777f0a5012)" style="fill: none; stroke: #ff7f0e"/>
   </g>
   <g id="line2d_41">
    <defs>
     <path id="mef5659c5c6" d="M 0 -3 
L -3 3 
L 3 3 
z
" style="stroke: #2ca02c; stroke-linejoin: miter"/>
    </defs>
    <g clip-path="url(#p777f0a5012)">
     <use xlink:href="#mef5659c5c6" x="661.094687" y="163.531123" style="fill: #2ca02c; stroke: #2ca02c; stroke-linejoin: miter"/>
    </g>
   </g>
   <g id="patch_10">
    <path d="M 472.374687 345.455625 
L 472.374687 21.935625 
" style="fill: none; stroke: #000000; stroke-width: 0.8; stroke-linejoin: miter; stroke-linecap: square"/>
   </g>
   <g id="patch_11">
    <path d="M 849.814687 345.455625 
L 849.814687 21.935625 
" style="fill: none; stroke: #000000; stroke-width: 0.8; stroke-linejoin: miter; stroke-linecap: square"/>
   </g>
   <g id="patch_12">
    <path d="M 472.374688 345.455625 
L 849.814687 345.455625 
" style="fill: none; stroke: #000000; stroke-width: 0.8; stroke-linejoin: miter; stroke-linecap: square"/>
   </g>
   <g id="patch_13">
    <path d="M 472.374688 21.935625 
L 849.814687 21.935625 
" style="fill: none; stroke: #000000; stroke-width: 0.8; stroke-linejoin: miter; stroke-linecap: square"/>
   </g>
   <g id="text_34">
    <!-- gs1 -->
    <g transform="translate(638.062675 171.851746) scale(0.08 -0.08)">
     <use xlink:href="#ArialMT-67"/>
     <use xlink:href="#ArialMT-73" x="55.615234"/>
     <use xlink:href="#ArialMT-31" x="105.615234"/>
    </g>
   </g>
   <g id="text_35">
    <!-- gs2 -->
    <g transform="translate(637.790398 221.266791) scale(0.08 -0.08)">
     <use xlink:href="#ArialMT-67"/>
     <use xlink:href="#ArialMT-73" x="55.615234"/>
     <use xlink:href="#ArialMT-32" x="105.615234"/>
    </g>
   </g>
   <g id="text_36">
    <!-- hww -->
    <g transform="translate(650.492182 148.048286) scale(0.08 -0.08)">
     <use xlink:href="#ArialMT-68"/>
     <use xlink:href="#ArialMT-77" x="55.615234"/>
     <use xlink:href="#ArialMT-77" x="127.832031"/>
    </g>
   </g>
   <g id="text_37">
    <!-- jz -->
    <g transform="translate(700.718606 157.640556) scale(0.08 -0.08)">
     <use xlink:href="#ArialMT-6a"/>
     <use xlink:href="#ArialMT-7a" x="22.216797"/>
    </g>
   </g>
   <g id="text_38">
    <!-- lx1 -->
    <g transform="translate(660.565937 168.424719) scale(0.08 -0.08)">
     <use xlink:href="#ArialMT-6c"/>
     <use xlink:href="#ArialMT-78" x="22.216797"/>
     <use xlink:href="#ArialMT-31" x="72.216797"/>
    </g>
   </g>
   <g id="text_39">
    <!-- lx2 -->
    <g transform="translate(660.178034 56.00316) scale(0.08 -0.08)">
     <use xlink:href="#ArialMT-6c"/>
     <use xlink:href="#ArialMT-78" x="22.216797"/>
     <use xlink:href="#ArialMT-32" x="72.216797"/>
    </g>
   </g>
   <g id="text_40">
    <!-- lx3 -->
    <g transform="translate(658.484067 148.652336) scale(0.08 -0.08)">
     <use xlink:href="#ArialMT-6c"/>
     <use xlink:href="#ArialMT-78" x="22.216797"/>
     <use xlink:href="#ArialMT-33" x="72.216797"/>
    </g>
   </g>
   <g id="text_41">
    <!-- pm -->
    <g transform="translate(650.098629 62.954986) scale(0.08 -0.08)">
     <use xlink:href="#ArialMT-70"/>
     <use xlink:href="#ArialMT-6d" x="55.615234"/>
    </g>
   </g>
   <g id="text_42">
    <!-- ysp -->
    <g transform="translate(667.94064 201.962979) scale(0.08 -0.08)">
     <use xlink:href="#ArialMT-79"/>
     <use xlink:href="#ArialMT-73" x="50"/>
     <use xlink:href="#ArialMT-70" x="100"/>
    </g>
   </g>
   <g id="text_43">
    <!-- zch1 -->
    <g transform="translate(645.016803 187.829004) scale(0.08 -0.08)">
     <use xlink:href="#ArialMT-7a"/>
     <use xlink:href="#ArialMT-63" x="50"/>
     <use xlink:href="#ArialMT-68" x="100"/>
     <use xlink:href="#ArialMT-31" x="155.615234"/>
    </g>
   </g>
   <g id="text_44">
    <!-- zch2 -->
    <g transform="translate(692.886012 35.05108) scale(0.08 -0.08)">
     <use xlink:href="#ArialMT-7a"/>
     <use xlink:href="#ArialMT-63" x="50"/>
     <use xlink:href="#ArialMT-68" x="100"/>
     <use xlink:href="#ArialMT-32" x="155.615234"/>
    </g>
   </g>
   <g id="text_45">
    <!-- zm -->
    <g transform="translate(660.92151 216.013791) scale(0.08 -0.08)">
     <use xlink:href="#ArialMT-7a"/>
     <use xlink:href="#ArialMT-6d" x="50"/>
    </g>
   </g>
   <g id="text_46">
    <!-- zxl -->
    <g transform="translate(656.149572 329.16017) scale(0.08 -0.08)">
     <use xlink:href="#ArialMT-7a"/>
     <use xlink:href="#ArialMT-78" x="50"/>
     <use xlink:href="#ArialMT-6c" x="100"/>
    </g>
   </g>
   <g id="text_47">
    <!-- (B) RMSE Distribution Across Participants -->
    <g transform="translate(549.730937 15.935625) scale(0.12 -0.12)">
     <defs>
      <path id="ArialMT-42" d="M 469 0 
L 469 4581 
L 2188 4581 
Q 2713 4581 3030 4442 
Q 3347 4303 3526 4014 
Q 3706 3725 3706 3409 
Q 3706 3116 3547 2856 
Q 3388 2597 3066 2438 
Q 3481 2316 3704 2022 
Q 3928 1728 3928 1328 
Q 3928 1006 3792 729 
Q 3656 453 3456 303 
Q 3256 153 2954 76 
Q 2653 0 2216 0 
L 469 0 
z
M 1075 2656 
L 2066 2656 
Q 2469 2656 2644 2709 
Q 2875 2778 2992 2937 
Q 3109 3097 3109 3338 
Q 3109 3566 3000 3739 
Q 2891 3913 2687 3977 
Q 2484 4041 1991 4041 
L 1075 4041 
L 1075 2656 
z
M 1075 541 
L 2216 541 
Q 2509 541 2628 563 
Q 2838 600 2978 687 
Q 3119 775 3209 942 
Q 3300 1109 3300 1328 
Q 3300 1584 3169 1773 
Q 3038 1963 2805 2039 
Q 2572 2116 2134 2116 
L 1075 2116 
L 1075 541 
z
" transform="scale(0.015625)"/>
     </defs>
     <use xlink:href="#ArialMT-28"/>
     <use xlink:href="#ArialMT-42" x="33.300781"/>
     <use xlink:href="#ArialMT-29" x="100"/>
     <use xlink:href="#ArialMT-20" x="133.300781"/>
     <use xlink:href="#ArialMT-52" x="161.083984"/>
     <use xlink:href="#ArialMT-4d" x="233.300781"/>
     <use xlink:href="#ArialMT-53" x="316.601562"/>
     <use xlink:href="#ArialMT-45" x="383.300781"/>
     <use xlink:href="#ArialMT-20" x="450"/>
     <use xlink:href="#ArialMT-44" x="477.783203"/>
     <use xlink:href="#ArialMT-69" x="550"/>
     <use xlink:href="#ArialMT-73" x="572.216797"/>
     <use xlink:href="#ArialMT-74" x="622.216797"/>
     <use xlink:href="#ArialMT-72" x="650"/>
     <use xlink:href="#ArialMT-69" x="683.300781"/>
     <use xlink:href="#ArialMT-62" x="705.517578"/>
     <use xlink:href="#ArialMT-75" x="761.132812"/>
     <use xlink:href="#ArialMT-74" x="816.748047"/>
     <use xlink:href="#ArialMT-69" x="844.53125"/>
     <use xlink:href="#ArialMT-6f" x="866.748047"/>
     <use xlink:href="#ArialMT-6e" x="922.363281"/>
     <use xlink:href="#ArialMT-20" x="977.978516"/>
     <use xlink:href="#ArialMT-41" x="1000.261719"/>
     <use xlink:href="#ArialMT-63" x="1066.960938"/>
     <use xlink:href="#ArialMT-72" x="1116.960938"/>
     <use xlink:href="#ArialMT-6f" x="1150.261719"/>
     <use xlink:href="#ArialMT-73" x="1205.876953"/>
     <use xlink:href="#ArialMT-73" x="1255.876953"/>
     <use xlink:href="#ArialMT-20" x="1305.876953"/>
     <use xlink:href="#ArialMT-50" x="1333.660156"/>
     <use xlink:href="#ArialMT-61" x="1400.359375"/>
     <use xlink:href="#ArialMT-72" x="1455.974609"/>
     <use xlink:href="#ArialMT-74" x="1489.275391"/>
     <use xlink:href="#ArialMT-69" x="1517.058594"/>
     <use xlink:href="#ArialMT-63" x="1539.275391"/>
     <use xlink:href="#ArialMT-69" x="1589.275391"/>
     <use xlink:href="#ArialMT-70" x="1611.492188"/>
     <use xlink:href="#ArialMT-61" x="1667.107422"/>
     <use xlink:href="#ArialMT-6e" x="1722.722656"/>
     <use xlink:href="#ArialMT-74" x="1778.337891"/>
     <use xlink:href="#ArialMT-73" x="1806.121094"/>
    </g>
   </g>
   <g id="PathCollection_2">
    <defs>
     <path id="m5fb9605b2b" d="M 0 4.472136 
C 1.186024 4.472136 2.323632 4.000923 3.162278 3.162278 
C 4.000923 2.323632 4.472136 1.186024 4.472136 0 
C 4.472136 -1.186024 4.000923 -2.323632 3.162278 -3.162278 
C 2.323632 -4.000923 1.186024 -4.472136 0 -4.472136 
C -1.186024 -4.472136 -2.323632 -4.000923 -3.162278 -3.162278 
C -4.000923 -2.323632 -4.472136 -1.186024 -4.472136 0 
C -4.472136 1.186024 -4.000923 2.323632 -3.162278 3.162278 
C -2.323632 4.000923 -1.186024 4.472136 0 4.472136 
z
" style="stroke: #7b1fa2; stroke-opacity: 0.8"/>
    </defs>
    <g clip-path="url(#p777f0a5012)">
     <use xlink:href="#m5fb9605b2b" x="644.511425" y="173.535496" style="fill: #7b1fa2; fill-opacity: 0.8; stroke: #7b1fa2; stroke-opacity: 0.8"/>
     <use xlink:href="#m5fb9605b2b" x="644.239148" y="222.950541" style="fill: #7b1fa2; fill-opacity: 0.8; stroke: #7b1fa2; stroke-opacity: 0.8"/>
     <use xlink:href="#m5fb9605b2b" x="658.494057" y="149.638286" style="fill: #7b1fa2; fill-opacity: 0.8; stroke: #7b1fa2; stroke-opacity: 0.8"/>
     <use xlink:href="#m5fb9605b2b" x="703.607356" y="159.324306" style="fill: #7b1fa2; fill-opacity: 0.8; stroke: #7b1fa2; stroke-opacity: 0.8"/>
     <use xlink:href="#m5fb9605b2b" x="665.679062" y="170.014719" style="fill: #7b1fa2; fill-opacity: 0.8; stroke: #7b1fa2; stroke-opacity: 0.8"/>
     <use xlink:href="#m5fb9605b2b" x="665.291159" y="57.59316" style="fill: #7b1fa2; fill-opacity: 0.8; stroke: #7b1fa2; stroke-opacity: 0.8"/>
     <use xlink:href="#m5fb9605b2b" x="663.597192" y="150.242336" style="fill: #7b1fa2; fill-opacity: 0.8; stroke: #7b1fa2; stroke-opacity: 0.8"/>
     <use xlink:href="#m5fb9605b2b" x="655.654879" y="64.544986" style="fill: #7b1fa2; fill-opacity: 0.8; stroke: #7b1fa2; stroke-opacity: 0.8"/>
     <use xlink:href="#m5fb9605b2b" x="674.165015" y="203.646729" style="fill: #7b1fa2; fill-opacity: 0.8; stroke: #7b1fa2; stroke-opacity: 0.8"/>
     <use xlink:href="#m5fb9605b2b" x="653.465553" y="189.419004" style="fill: #7b1fa2; fill-opacity: 0.8; stroke: #7b1fa2; stroke-opacity: 0.8"/>
     <use xlink:href="#m5fb9605b2b" x="701.334762" y="36.64108" style="fill: #7b1fa2; fill-opacity: 0.8; stroke: #7b1fa2; stroke-opacity: 0.8"/>
     <use xlink:href="#m5fb9605b2b" x="666.253385" y="217.603791" style="fill: #7b1fa2; fill-opacity: 0.8; stroke: #7b1fa2; stroke-opacity: 0.8"/>
     <use xlink:href="#m5fb9605b2b" x="661.038322" y="330.75017" style="fill: #7b1fa2; fill-opacity: 0.8; stroke: #7b1fa2; stroke-opacity: 0.8"/>
    </g>
   </g>
  </g>
 </g>
 <defs>
  <clipPath id="pee5781b86c">
   <rect x="45.774688" y="21.935625" width="377.44" height="323.52"/>
  </clipPath>
  <clipPath id="p777f0a5012">
   <rect x="472.374687" y="21.935625" width="377.44" height="323.52"/>
  </clipPath>
 </defs>
</svg>
